<?xml version="1.0" standalone="no"?>
<!DOCTYPE svg PUBLIC "-//W3C//DTD SVG 20010904//EN"
 "http://www.w3.org/TR/2001/REC-SVG-20010904/DTD/svg10.dtd">
<svg version="1.0" xmlns="http://www.w3.org/2000/svg"
 width="512.000000pt" height="512.000000pt" viewBox="0 0 512.000000 512.000000"
 preserveAspectRatio="xMidYMid meet">

<g transform="translate(0.000000,512.000000) scale(0.100000,-0.100000)"
fill="#000000" stroke="none">
<path d="M3220 5105 c-265 -36 -490 -132 -705 -300 -477 -373 -670 -1011 -480
-1589 79 -244 235 -480 425 -643 190 -164 421 -279 654 -327 224 -47 655 -47
855 0 l64 15 202 -201 c194 -192 204 -200 241 -200 41 0 74 21 93 57 7 14 11
119 11 318 l0 296 98 97 c142 140 249 294 320 457 262 607 84 1316 -433 1720
-218 171 -441 264 -714 301 -133 17 -500 17 -631 -1z m686 -208 c389 -83 707
-327 885 -678 39 -79 93 -243 110 -339 17 -92 17 -341 0 -430 -56 -301 -202
-547 -451 -762 l-65 -56 -3 -217 -3 -218 -139 138 -139 137 -43 -5 c-24 -2
-88 -15 -143 -28 -90 -21 -125 -23 -360 -23 -350 -1 -475 23 -691 129 -355
174 -598 490 -680 885 -22 105 -25 341 -5 450 70 391 323 729 680 910 87 43
249 95 341 109 41 6 86 13 100 15 63 11 538 -3 606 -17z"/>
<path d="M3455 4402 c-86 -26 -122 -47 -182 -108 -74 -74 -116 -165 -121 -262
-4 -69 -3 -75 24 -103 36 -38 90 -40 132 -4 23 20 31 37 40 91 13 81 46 134
105 168 91 54 199 41 270 -32 121 -125 74 -308 -97 -371 -137 -51 -156 -87
-156 -299 0 -92 4 -161 11 -176 7 -14 27 -32 46 -41 31 -15 40 -15 72 -3 58
22 71 60 71 206 0 91 3 122 13 122 33 0 137 62 183 109 208 212 145 554 -124
678 -93 43 -196 52 -287 25z"/>
<path d="M3543 3053 c-35 -7 -73 -59 -73 -100 0 -77 103 -124 159 -72 77 72
18 191 -86 172z"/>
<path d="M555 3364 c-38 -8 -112 -36 -164 -60 -78 -38 -109 -60 -181 -132 -75
-74 -94 -101 -133 -182 -79 -164 -77 -139 -77 -1080 0 -941 -2 -916 77 -1080
39 -81 58 -108 133 -182 72 -72 103 -94 181 -131 145 -71 194 -77 576 -77
l328 0 190 -191 c251 -253 273 -268 338 -238 50 23 57 52 57 248 l0 181 520 0
c596 0 614 2 770 77 80 38 109 59 181 132 73 72 94 101 132 181 74 153 78 191
75 648 l-3 394 -34 30 c-28 25 -39 29 -70 24 -23 -3 -46 -17 -63 -36 l-28 -30
0 -388 c0 -426 -2 -448 -61 -564 -38 -76 -127 -167 -199 -203 -124 -63 -80
-59 -747 -65 l-613 -5 -27 -28 c-27 -26 -28 -33 -33 -143 l-5 -115 -130 131
c-71 73 -139 138 -150 146 -16 11 -89 14 -385 14 -292 0 -377 3 -423 15 -185
48 -324 187 -372 372 -22 85 -22 1681 0 1766 48 185 187 324 372 372 47 12
152 15 605 15 l548 0 32 29 c27 24 33 36 33 71 0 35 -6 47 -33 71 l-32 29
-558 -1 c-450 0 -570 -3 -627 -15z"/>
<path d="M605 2571 c-64 -27 -81 -110 -32 -158 l27 -28 765 -3 764 -2 33 29
c27 24 33 36 33 71 0 35 -6 47 -33 71 l-32 29 -753 -1 c-413 0 -761 -4 -772
-8z"/>
<path d="M605 2011 c-64 -27 -81 -110 -32 -158 l27 -28 1090 -3 1089 -2 33 29
c27 24 33 36 33 71 0 35 -6 47 -33 71 l-32 29 -1078 -1 c-592 0 -1086 -4
-1097 -8z"/>
<path d="M605 1451 c-64 -27 -81 -110 -32 -158 l27 -28 888 -2 c694 -2 892 0
912 10 14 7 33 29 43 50 18 36 18 38 0 74 -10 21 -29 43 -43 50 -19 10 -222
13 -900 12 -481 0 -884 -4 -895 -8z"/>
<path d="M2715 1451 c-64 -27 -81 -110 -32 -158 60 -61 162 -19 162 67 0 66
-72 116 -130 91z"/>
</g>
</svg>
